<?xml version="1.0" encoding="UTF-8"?>
<svg width="20px" height="20px" viewBox="0 0 20 20" version="1.1" xmlns="http://www.w3.org/2000/svg" xmlns:xlink="http://www.w3.org/1999/xlink">
    <!-- Generator: Sketch 45.1 (43504) - http://www.bohemiancoding.com/sketch -->
    <title>Shape</title>
    <desc>Created with Sketch.</desc>
    <defs></defs>
    <g id="Entry" stroke="none" stroke-width="1" fill="none" fill-rule="evenodd">
        <g id="Desktop-HD" transform="translate(-925.000000, -172.000000)" fill-rule="nonzero" fill="#FFFFFF">
            <g id="noun_1014231_cc" transform="translate(925.000000, 172.000000)">
                <path d="M10,0 C4.49350649,0 0,4.49350649 0,10 C0,15.5064935 4.49350649,20 10,20 C15.5064935,20 20,15.5064935 20,10 C20,4.49350649 15.5064935,0 10,0 Z M13.6103896,13.5844156 C13.4805195,13.7142857 13.3246753,13.7662338 13.1428571,13.7662338 C12.961039,13.7662338 12.8051948,13.7142857 12.6753247,13.5844156 L10,10.9090909 L7.35064935,13.5844156 C7.22077922,13.7142857 7.06493506,13.7662338 6.88311688,13.7662338 C6.7012987,13.7662338 6.54545455,13.7142857 6.41558442,13.5844156 C6.15584416,13.3246753 6.15584416,12.9090909 6.41558442,12.6753247 L9.09090909,10 L6.41558442,7.32467532 C6.15584416,7.09090909 6.15584416,6.67532468 6.41558442,6.41558442 C6.64935065,6.15584416 7.06493506,6.15584416 7.32467532,6.41558442 L10,9.09090909 L12.6753247,6.41558442 C12.9090909,6.15584416 13.3246753,6.15584416 13.5844156,6.41558442 C13.8441558,6.64935065 13.8441558,7.06493506 13.5844156,7.32467532 L10.9090909,10 L13.6103896,12.6753247 C13.8701299,12.9090909 13.8701299,13.3246753 13.6103896,13.5844156 Z" id="Shape"></path>
            </g>
        </g>
    </g>
</svg>