<?xml version="1.0" encoding="UTF-8"?>
<svg width="232px" height="232px" viewBox="0 0 232 232" version="1.1" xmlns="http://www.w3.org/2000/svg" xmlns:xlink="http://www.w3.org/1999/xlink">
    <!-- Generator: Sketch 45.1 (43504) - http://www.bohemiancoding.com/sketch -->
    <title>Shape</title>
    <desc>Created with Sketch.</desc>
    <defs></defs>
    <g id="Block" stroke="none" stroke-width="1" fill="none" fill-rule="evenodd">
        <g id="Desktop-HD" transform="translate(-127.000000, -359.000000)" fill-rule="nonzero" fill="#626262">
            <g id="Content" transform="translate(60.000000, 50.000000)">
                <g id="Field-Copy" transform="translate(55.000000, 242.000000)">
                    <g id="Group-5" transform="translate(12.000000, 67.000000)">
                        <g id="Shape">
                            <path d="M116,0 C52.1246753,0 0,52.1246753 0,116 C0,179.875325 52.1246753,232 116,232 C179.875325,232 232,179.875325 232,116 C232,52.1246753 179.875325,0 116,0 Z M157.880519,157.579221 C156.374026,159.085714 154.566234,159.688312 152.457143,159.688312 C150.348052,159.688312 148.54026,159.085714 147.033766,157.579221 L116,126.545455 L85.2675325,157.579221 C83.761039,159.085714 81.9532468,159.688312 79.8441558,159.688312 C77.7350649,159.688312 75.9272727,159.085714 74.4207792,157.579221 C71.4077922,154.566234 71.4077922,149.745455 74.4207792,147.033766 L105.454545,116 L74.4207792,84.9662338 C71.4077922,82.2545455 71.4077922,77.4337662 74.4207792,74.4207792 C77.1324675,71.4077922 81.9532468,71.4077922 84.9662338,74.4207792 L116,105.454545 L147.033766,74.4207792 C149.745455,71.4077922 154.566234,71.4077922 157.579221,74.4207792 C160.592208,77.1324675 160.592208,81.9532468 157.579221,84.9662338 L126.545455,116 L157.880519,147.033766 C160.893506,149.745455 160.893506,154.566234 157.880519,157.579221 Z"></path>
                        </g>
                    </g>
                </g>
            </g>
        </g>
    </g>
</svg>