<?xml version="1.0" encoding="UTF-8"?>
<svg width="19px" height="19px" viewBox="0 0 19 19" version="1.1" xmlns="http://www.w3.org/2000/svg" xmlns:xlink="http://www.w3.org/1999/xlink">
    <!-- Generator: Sketch 45.1 (43504) - http://www.bohemiancoding.com/sketch -->
    <title>Shape</title>
    <desc>Created with Sketch.</desc>
    <defs></defs>
    <g id="Assets" stroke="none" stroke-width="1" fill="none" fill-rule="evenodd">
        <g id="Desktop-HD" transform="translate(-977.000000, -146.000000)" fill-rule="nonzero" fill="#000000">
            <g id="Searchbox" transform="translate(958.000000, 133.000000)">
                <path d="M37.6871569,31.0948314 L32.4362375,25.843912 C35.1477813,22.8236385 35.0520625,18.159599 32.1484528,15.2559893 C30.6936109,13.8011474 28.7593373,13 26.7021163,13 C24.6448954,13 22.7106217,13.8011474 21.2559893,15.2559893 C19.8011474,16.7106217 19,18.6446859 19,20.7021163 C19,22.7593373 19.8011474,24.6936109 21.2559893,26.1484528 C22.7106217,27.6032947 24.6448954,28.4044421 26.7021163,28.4044421 C28.6190056,28.4044421 30.4288657,27.7082293 31.843912,26.4362375 L37.0948314,31.6871569 C37.1767264,31.7690519 37.2837556,31.8098947 37.3909941,31.8098947 C37.4982327,31.8098947 37.6052618,31.7690519 37.6871569,31.6871569 C37.850947,31.5237856 37.850947,31.2584121 37.6871569,31.0948314 Z M26.7021163,27.5666409 C24.8685883,27.5666409 23.1448122,26.8526248 21.8483148,25.5561273 C20.5518174,24.2594204 19.8375918,22.5356444 19.8375918,20.7021163 C19.8375918,18.8685883 20.5516079,17.1448122 21.8483148,15.8483148 C23.1448122,14.5518174 24.8685883,13.8375918 26.7021163,13.8375918 C28.5356444,13.8375918 30.2594204,14.5516079 31.5561273,15.8483148 C34.2324834,18.5244614 34.2324834,22.8793523 31.5561273,25.5561273 C30.2594204,26.8526248 28.5356444,27.5666409 26.7021163,27.5666409 Z" id="Shape"></path>
            </g>
        </g>
    </g>
</svg>