<?xml version="1.0" encoding="UTF-8"?>
<svg width="20px" height="20px" viewBox="0 0 20 20" version="1.1" xmlns="http://www.w3.org/2000/svg" xmlns:xlink="http://www.w3.org/1999/xlink">
    <!-- Generator: Sketch 45.1 (43504) - http://www.bohemiancoding.com/sketch -->
    <title>Shape</title>
    <desc>Created with Sketch.</desc>
    <defs></defs>
    <g id="Assets" stroke="none" stroke-width="1" fill="none" fill-rule="evenodd">
        <g id="Desktop-HD" transform="translate(-1353.000000, -223.000000)" fill-rule="nonzero" fill="#A4EFDE">
            <path d="M1361.60795,223 L1360.91193,225.428955 C1360.28045,225.602955 1359.67925,225.850591 1359.12216,226.167591 L1356.92045,224.946 L1354.94602,226.920455 L1356.16761,229.122182 C1355.85065,229.679182 1355.60294,230.2805 1355.42898,230.911955 L1353,231.607955 L1353,234.392045 L1355.42898,235.088091 C1355.60294,235.719591 1355.85065,236.320727 1356.16761,236.877864 L1354.94602,239.079545 L1356.92045,241.054 L1359.12216,239.832409 C1359.67925,240.149409 1360.28045,240.397091 1360.91193,240.571045 L1361.60795,243 L1364.39205,243 L1365.08807,240.571045 C1365.71955,240.397091 1366.32075,240.149409 1366.87784,239.832409 L1369.07955,241.054 L1371.05398,239.079545 L1369.83239,236.877864 C1370.14935,236.320727 1370.39705,235.719591 1370.57102,235.088091 L1373,234.392045 L1373,231.607955 L1370.57102,230.911955 C1370.39705,230.2805 1370.14935,229.679182 1369.83239,229.122182 L1371.05398,226.920455 L1369.07955,224.946 L1366.87784,226.167591 C1366.32075,225.850591 1365.71955,225.602955 1365.08807,225.428955 L1364.39205,223 L1361.60795,223 Z M1363,228.454545 C1365.49424,228.454545 1367.54545,230.505773 1367.54545,233 C1367.54545,235.494227 1365.49424,237.545455 1363,237.545455 C1360.50576,237.545455 1358.45455,235.494227 1358.45455,233 C1358.45455,230.505773 1360.50576,228.454545 1363,228.454545 Z M1363,231.181818 C1361.9797,231.181818 1361.18182,231.979727 1361.18182,233 C1361.18182,234.020273 1361.9797,234.818182 1363,234.818182 C1364.0203,234.818182 1364.81818,234.020273 1364.81818,233 C1364.81818,231.979727 1364.0203,231.181818 1363,231.181818 Z" id="Shape"></path>
        </g>
    </g>
</svg>