<?xml version="1.0" encoding="UTF-8"?>
<svg width="28px" height="27px" viewBox="0 0 28 27" version="1.1" xmlns="http://www.w3.org/2000/svg" xmlns:xlink="http://www.w3.org/1999/xlink">
    <!-- Generator: Sketch 45.1 (43504) - http://www.bohemiancoding.com/sketch -->
    <title>field</title>
    <desc>Created with Sketch.</desc>
    <defs></defs>
    <g id="Menu-Icons" stroke="none" stroke-width="1" fill="none" fill-rule="evenodd">
        <g id="Artboard" transform="translate(-26.000000, -114.000000)" fill="#FFFFFF">
            <g id="field" transform="translate(26.000000, 114.000000)">
                <g id="Group" transform="translate(0.000000, 0.149086)">
                    <path d="M3.55833333,0.2625 C1.69166667,0.2625 0.145833333,1.77916667 0.145833333,3.675 C0.145833333,5.54166667 1.6625,7.0875 3.55833333,7.0875 C5.425,7.0875 6.97083333,5.57083333 6.97083333,3.675 C6.94166667,1.77916667 5.425,0.2625 3.55833333,0.2625 Z M3.55833333,5.01666667 C2.8,5.01666667 2.1875,4.40416667 2.1875,3.64583333 C2.1875,2.8875 2.8,2.275 3.55833333,2.275 C4.31666667,2.275 4.92916667,2.8875 4.92916667,3.64583333 C4.9,4.40416667 4.2875,5.01666667 3.55833333,5.01666667 Z" id="Shape" fill-rule="nonzero"></path>
                    <path d="M3.55833333,9.7125 C1.6625,9.7125 0.145833333,11.2583333 0.145833333,13.125 C0.145833333,14.9916667 1.6625,16.5375 3.55833333,16.5375 C5.425,16.5375 6.97083333,15.0208333 6.97083333,13.125 C6.94166667,11.2583333 5.425,9.7125 3.55833333,9.7125 Z M3.55833333,14.4958333 C2.8,14.4958333 2.1875,13.8833333 2.1875,13.125 C2.1875,12.3666667 2.8,11.7541667 3.55833333,11.7541667 C4.31666667,11.7541667 4.92916667,12.3666667 4.92916667,13.125 C4.9,13.8833333 4.2875,14.4958333 3.55833333,14.4958333 Z" id="Shape" fill-rule="nonzero"></path>
                    <path d="M3.55833333,19.1916667 C1.6625,19.1916667 0.145833333,20.7083333 0.145833333,22.575 C0.145833333,24.4416667 1.6625,25.9875 3.55833333,25.9875 C5.425,25.9875 6.97083333,24.4708333 6.97083333,22.575 C6.94166667,20.7083333 5.425,19.1916667 3.55833333,19.1916667 Z M3.55833333,23.9458333 C2.8,23.9458333 2.1875,23.3333333 2.1875,22.575 C2.1875,21.8166667 2.8,21.2041667 3.55833333,21.2041667 C4.31666667,21.2041667 4.92916667,21.8166667 4.92916667,22.575 C4.9,23.3333333 4.2875,23.9458333 3.55833333,23.9458333 Z" id="Shape" fill-rule="nonzero"></path>
                    <path d="M10.6458333,4.69583333 L26.8333333,4.69583333 C27.3875,4.69583333 27.8541667,4.22916667 27.8541667,3.675 C27.8541667,3.12083333 27.3875,2.65416667 26.8333333,2.65416667 L10.6458333,2.65416667 C10.0916667,2.65416667 9.625,3.12083333 9.625,3.675 C9.625,4.22916667 10.0625,4.69583333 10.6458333,4.69583333 Z" id="Shape" fill-rule="nonzero"></path>
                    <path d="M26.8333333,12.1041667 L10.6458333,12.1041667 C10.0916667,12.1041667 9.625,12.5708333 9.625,13.125 C9.625,13.6791667 10.0916667,14.1458333 10.6458333,14.1458333 L26.8333333,14.1458333 C27.3875,14.1458333 27.8541667,13.6791667 27.8541667,13.125 C27.8541667,12.5708333 27.3875,12.1041667 26.8333333,12.1041667 Z" id="Shape" fill-rule="nonzero"></path>
                    <path d="M26.8333333,21.5541667 L10.6458333,21.5541667 C10.0916667,21.5541667 9.625,22.0208333 9.625,22.575 C9.625,23.1291667 10.0916667,23.5958333 10.6458333,23.5958333 L26.8333333,23.5958333 C27.3875,23.5958333 27.8541667,23.1291667 27.8541667,22.575 C27.8541667,22.0208333 27.3875,21.5541667 26.8333333,21.5541667 Z" id="Shape" fill-rule="nonzero"></path>
                </g>
            </g>
        </g>
    </g>
</svg>